<svg width="38" height="38" viewBox="0 0 38 38" fill="none" xmlns="http://www.w3.org/2000/svg">
<circle cx="19" cy="19" r="19" fill="#00FF66"/>
<path d="M13 27V17C13 15.4087 13.6321 13.8826 14.7574 12.7574C15.8826 11.6321 17.4087 11 19 11C20.5913 11 22.1174 11.6321 23.2426 12.7574C24.3679 13.8826 25 15.4087 25 17V27M9 20.565C9 18.512 11 18 13 18V27C11.9391 27 10.9217 26.5786 10.1716 25.8284C9.42143 25.0783 9 24.0609 9 23V20.565ZM29 20.565C29 18.512 27 18 25 18V27C26.0609 27 27.0783 26.5786 27.8284 25.8284C28.5786 25.0783 29 24.0609 29 23V20.565Z" stroke="#FAFAFA" stroke-width="1.5" stroke-linecap="round" stroke-linejoin="round"/>
</svg>
