<svg width="38" height="38" viewBox="0 0 38 38" fill="none" xmlns="http://www.w3.org/2000/svg">
<circle cx="19" cy="19" r="19" fill="#DB4444"/>
<path d="M27.485 10H23.493L23.993 15C23.993 15 24.993 16 26.493 16C27.2805 16.001 28.0411 15.7144 28.632 15.194C28.6945 15.1356 28.741 15.0623 28.7673 14.9809C28.7935 14.8996 28.7986 14.8129 28.782 14.729L28.076 10.5C28.0524 10.3603 27.9801 10.2335 27.872 10.1419C27.7638 10.0504 27.6267 10.0001 27.485 10V10Z" stroke="white" stroke-width="1.5"/>
<path d="M23.493 10L23.993 15C23.993 15 22.993 16 21.493 16C19.993 16 18.993 15 18.993 15V10H23.493Z" stroke="white" stroke-width="1.5"/>
<path d="M18.993 10V15C18.993 15 17.993 16 16.493 16C14.993 16 13.993 15 13.993 15L14.493 10H18.993Z" stroke="white" stroke-width="1.5"/>
<path d="M14.493 10H10.502C10.36 9.99995 10.2226 10.0503 10.1142 10.142C10.0058 10.2337 9.93344 10.3609 9.91001 10.501L9.20501 14.73C9.18853 14.8139 9.19366 14.9005 9.2199 14.9819C9.24614 15.0632 9.29263 15.1366 9.35501 15.195C9.68301 15.485 10.416 16.001 11.493 16.001C12.993 16.001 13.993 15.001 13.993 15.001L14.493 10.001V10Z" stroke="white" stroke-width="1.5"/>
<path d="M10 16V26C10 26.5304 10.2107 27.0391 10.5858 27.4142C10.9609 27.7893 11.4696 28 12 28H26C26.5304 28 27.0391 27.7893 27.4142 27.4142C27.7893 27.0391 28 26.5304 28 26V16" stroke="white" stroke-width="1.5"/>
<path d="M21.833 28V22C21.833 21.4696 21.6223 20.9609 21.2472 20.5858C20.8721 20.2107 20.3634 20 19.833 20H17.833C17.3026 20 16.7939 20.2107 16.4188 20.5858C16.0437 20.9609 15.833 21.4696 15.833 22V28" stroke="white" stroke-width="1.5" stroke-miterlimit="16"/>
</svg>
